<?xml version="1.0" encoding="UTF-8" standalone="no"?>
<svg
   version="1.1"
   viewBox="-5 -10 92.458793 93.07692"
   id="svg43"
   width="92.458794"
   height="93.07692"
   xml:space="preserve"
   xmlns="http://www.w3.org/2000/svg"
   xmlns:svg="http://www.w3.org/2000/svg"><defs
     id="defs43" /><rect
     style="display:none;fill:#ff5555;stroke:#000000;stroke-width:0.0488079;stroke-linejoin:round"
     id="rect43"
     width="92.409988"
     height="93.028114"
     x="-4.975596"
     y="-9.9755964" /><path
     d="m 32.711686,33.752578 c -0.79017,0.834612 -1.02592,2.089898 -0.599,3.176893 0.42695,1.09035 1.43375,1.800426 2.55209,1.800426 1.11515,0 2.122,-0.710087 2.54891,-1.800426 0.42694,-1.086995 0.19116,-2.342327 -0.599,-3.176893 -1.0769,-1.137471 -2.82607,-1.137471 -3.90305,0 z m 2.75918,1.204763 v 0.0035 c 0.38552,0.403848 0.44606,1.04323 0.14338,1.521115 -0.30268,0.477885 -0.88253,0.666345 -1.38596,0.444222 -0.50341,-0.218743 -0.79015,-0.784123 -0.68501,-1.349492 0.1051,-0.562012 0.57668,-0.969228 1.12152,-0.969228 0.30267,-0.0035 0.59261,0.124526 0.80608,0.353372 z m -10.2878,6.747506 c -0.79016,0.834601 -1.02593,2.08653 -0.599,3.176881 0.42693,1.090351 1.43375,1.800426 2.55209,1.800426 1.11516,0 2.122,-0.710087 2.5489,-1.800426 0.42696,-1.090351 0.19118,-2.342327 -0.59899,-3.176881 -1.0769,-1.137483 -2.82606,-1.137483 -3.90305,0 z m 2.75918,2.914372 c -0.38552,0.407216 -0.99085,0.467795 -1.44329,0.148086 -0.45244,-0.319708 -0.62767,-0.932174 -0.42057,-1.463915 0.21029,-0.531729 0.74556,-0.8346 1.27764,-0.720189 0.53527,0.111125 0.92078,0.609133 0.92078,1.184604 0,0.319709 -0.12107,0.625959 -0.33454,0.851438 z M 14.706686,20.058747 c -0.99411,0 -1.88938,0.632694 -2.26849,1.601922 -0.37911,0.969239 -0.16886,2.083185 0.53209,2.826853 0.70413,0.740382 1.7587,0.962505 2.67631,0.562013 0.91761,-0.403848 1.51662,-1.349504 1.51662,-2.399538 -0.003,-1.430311 -1.09925,-2.591308 -2.45649,-2.591308 z m 0,3.476443 c -0.33773,0 -0.6436,-0.215388 -0.77104,-0.545187 -0.13064,-0.3298 -0.0574,-0.710087 0.18161,-0.962493 0.23896,-0.252407 0.59581,-0.329811 0.91125,-0.19184 0.31223,0.134616 0.51296,0.457692 0.51296,0.814419 0,0.487976 -0.37278,0.885054 -0.83473,0.885054 z m 40.18058,17.788859 c 0,0.225479 -0.0829,0.444222 -0.23577,0.602399 -0.15293,0.161532 -0.35685,0.252394 -0.5735,0.252394 h -3.46651 c -0.44925,0 -0.81247,-0.383643 -0.81247,-0.854793 0,-0.474517 0.36322,-0.858161 0.81247,-0.858161 h 3.46969 -0.003 c 0.44925,0.0035 0.80928,0.383644 0.80928,0.858161 z m 20.404315,-11.542775 -23.851255,-0.0035 -3.29132,-2.009079 -1.24573,-4.910028 0.28674,-0.521638 4.75052,-1.346136 6.20025,3.779267 h -0.003 c 0.24852,0.154809 0.55757,0.154809 0.80928,0 0.2517,-0.151429 0.40463,-0.434131 0.40463,-0.74037 v -4.226845 c 0,-0.306239 -0.15612,-0.588929 -0.40782,-0.740382 l -5.99633,-3.658133 c -0.18479,-0.114377 -0.40464,-0.144707 -0.61494,-0.08419 l -6.68131,1.891312 -4.43511,-2.705719 h 0.003 c -0.62767,-1.612001 -2.02004,-2.746117 -3.65452,-2.971584 -1.63448,-0.228834 -3.25942,0.484608 -4.2599,1.867798 l -14.69476,4.159555 c -1.74598,-1.487522 -4.1165,-1.867798 -6.19707,-0.989386 -2.08374,0.87833 -3.5557397,2.87733 -3.8488897,5.229736 -0.29313,2.34905 0.64041,4.681216 2.4374097,6.097999 1.79695,1.416783 4.18021,1.699531 6.22887,0.733636 l 10.49498,6.400905 -4.43509,4.684572 c -0.81884,0.861528 -1.35089,1.978842 -1.52299,3.186971 h -2.14744 c -2.55846,0.0035 -4.63265,2.19423 -4.63583,4.899949 v 3.18696 h -2.00405 c -2.55846,0.0035 -4.6326597,2.194229 -4.6358397,4.899948 v 4.045144 c 0,0.47115 0.36321,0.854805 0.80928,0.854805 H 45.115386 c 0.44606,0 0.80927,-0.383655 0.80927,-0.854805 V 55.89626 c -0.003,-2.705719 -2.07738,-4.896593 -4.63582,-4.899949 h -2.00406 V 47.80934 c -0.003,-2.345683 -1.57397,-4.358129 -3.75011,-4.809051 l 2.97263,-3.139851 c 1.61222,-1.702898 2.04549,-4.284127 1.08645,-6.468184 -0.96222,-2.184151 -3.11285,-3.496612 -5.38142,-3.291304 l -10.06513,-6.138396 11.03657,-3.123049 c 0.75512,0.336534 1.58032,0.450957 2.38961,0.333179 l 4.29808,2.621626 1.81931,7.178271 c 0.0573,0.218743 0.19116,0.403836 0.37596,0.518259 l 2.67313,1.628803 v 26.818544 c 0,0.471161 0.36321,0.854805 0.80928,0.854805 h 27.741905 c 0.44607,0 0.80929,-0.383644 0.80929,-0.854805 V 30.635861 c 0,-0.471162 -0.36322,-0.854805 -0.80929,-0.854805 z m -0.80927,14.646002 -12.251085,-0.0035 V 31.490497 h 2.97582 v 5.724434 -0.0035 c 0,0.474517 0.363225,0.854805 0.812465,0.854805 h 4.67727 -0.003 c 0.44924,0 0.80928,-0.380288 0.80928,-0.854805 v -5.721068 h 2.97581 z m -7.65309,1.709621 h 3.05551 v 4.869619 l -3.05551,-0.0035 z m 0,-14.646001 h 3.05551 v 4.866262 h -3.05551 z M 60.613066,44.431061 H 48.361986 V 31.490896 h 2.97582 v 5.724435 -0.0035 c 0,0.474518 0.36322,0.854805 0.81246,0.854805 h 4.67091 c 0.44924,0 0.80928,-0.380287 0.81246,-0.854805 v -5.721067 h 2.97582 z m -7.65309,1.709622 3.05551,0.0035 v 4.869619 l -3.05869,-0.0035 z m 0,-14.646002 3.05551,0.0035 v 4.866262 h -3.05869 z m -0.5289,-14.427165 5.30172,3.234092 v 2.251441 l -5.27302,-3.213934 c -0.18797,-0.114376 -0.40782,-0.144718 -0.61492,-0.08755 l -3.51431,0.992742 0.16886,-0.309618 c 0.0732,-0.127881 0.11152,-0.275955 0.11152,-0.427396 0,-0.306239 -0.15612,-0.588929 -0.40783,-0.740371 l -0.57032,-0.343269 z m -18.93533,2.480252 -12.60099,3.567259 c 0.01,-0.151441 0.0159,-0.30625 0.0159,-0.461059 v -0.0035 c 0.003,-1.305738 -0.36958,-2.584584 -1.06417,-3.664856 l 12.59772,-3.567247 c -0.2772,1.473982 0.11151,3.001913 1.05145,4.129306 z m -23.37002,3.10289 c 0,-1.958602 1.11515,-3.725423 2.82933,-4.47254 1.71417,-0.750472 3.68315,-0.336546 4.99586,1.046586 1.30952,1.386545 1.70136,3.469638 0.99411,5.276857 -0.7105,1.810598 -2.38007,2.991834 -4.23437,2.991834 -2.533,-0.0035 -4.58167,-2.167255 -4.58803,-4.842737 z m 34.18065,33.246412 v 3.186972 H 9.9634163 V 55.89707 c 0,-1.763465 1.3508797,-3.190327 3.0172397,-3.190327 h 28.30879 c 1.66638,0.0035 3.01726,1.43031 3.01726,3.190327 z m -9.6573,-11.273972 c 1.66638,0 3.01725,1.426873 3.01725,3.186971 v 3.186971 h -21.06336 v -3.186971 c 0,-1.760098 1.35089,-3.186971 3.01726,-3.186971 h 2.14744 c 0.30268,2.137029 1.72053,3.910574 3.66725,4.590319 1.94353,0.676435 4.08143,0.141339 5.53109,-1.386546 l 3.03324,-3.203855 z m 2.71456,-11.657349 h -0.003 c 1.48473,1.571603 1.48473,4.115779 0,5.687475 l -7.53523,7.962417 c -1.49109,1.554813 -3.88706,1.54809 -5.36543,-0.01684 -1.48154,-1.561524 -1.48791,-4.095632 -0.0191,-5.667235 l 7.54159,-7.965785 c 1.48791,-1.56488 3.89342,-1.56488 5.38141,0 z m -5.289,-2.190874 c -0.45562,0.262497 -0.87299,0.592308 -1.24256,0.979307 l -1.91809,2.02933 -10.14506,-6.185517 c 0.76787,-0.703364 1.36369,-1.598578 1.73008,-2.601399 l 1.43693,-0.407203 z m 1.89892,-14.420279 h 0.003 c 0,-1.27549 0.72644,-2.426408 1.84158,-2.911016 1.11516,-0.487975 2.39915,-0.218755 3.25306,0.683171 0.8539,0.901925 1.1088,2.258152 0.64679,3.436033 -0.462,1.177881 -1.55162,1.945156 -2.75919,1.945156 -1.6472,-0.0035 -2.98218,-1.413415 -2.98218,-3.153367 z m 7.57666,0.333179 5.13925,3.136483 -0.74237,1.356215 -1.27764,2.345683 -5.13925,-3.136484 c 1.17886,-0.837967 1.92444,-2.204308 2.02322,-3.705265 z m 3.61944,13.501887 -1.31588,-5.185982 0.70732,0.430764 c 0.1848,0.114376 0.40463,0.144718 0.61493,0.08419 0.2071,-0.05725 0.38233,-0.201919 0.49066,-0.397113 l 0.0893,-0.161533 0.91442,3.600933 h -0.003 c 0.0574,0.218744 0.19436,0.403837 0.37915,0.514904 l 1.15341,0.703352 h -0.65316 c -0.44606,0.0035 -0.80928,0.383654 -0.80928,0.85816 v 0.508169 z m 3.19254,15.955514 h 2.97582 v 5.724435 c 0,0.225479 0.086,0.444223 0.23897,0.602399 0.14974,0.161544 0.35684,0.252406 0.57349,0.249039 h 4.67091 c 0.44925,0 0.80928,-0.380288 0.81246,-0.851438 v -5.724435 h 2.97582 V 59.085354 H 48.361856 Z M 74.481781,59.085354 H 62.230706 V 46.145176 h 2.97583 v 5.724435 c 0,0.47115 0.363215,0.851438 0.812465,0.851438 h 4.67726 -0.003 c 0.44925,0 0.80928,-0.380288 0.80928,-0.851438 v -5.724435 h 2.97582 z M 68.756331,41.32665 c 0,0.47115 -0.36004,0.854805 -0.80929,0.854805 h -3.466515 c -0.44605,0 -0.80929,-0.383655 -0.80929,-0.854805 0,-0.474517 0.36323,-0.858161 0.80929,-0.858161 h 3.466515 c 0.44925,0.0035 0.80929,0.383644 0.80929,0.858161 z M 54.890256,55.976089 c 0,0.471161 -0.36003,0.854805 -0.80928,0.854805 h -3.46969 c -0.44925,0 -0.81246,-0.383644 -0.81246,-0.854805 0,-0.474506 0.36321,-0.854794 0.81246,-0.854794 h 3.46969 -0.003 c 0.44924,0 0.80928,0.383644 0.80928,0.854794 z m 13.866075,0 c 0,0.471161 -0.36004,0.854805 -0.80929,0.854805 h -3.466515 c -0.44605,0 -0.80929,-0.383644 -0.80929,-0.854805 0,-0.474506 0.36323,-0.854794 0.80929,-0.854794 h 3.466515 c 0.44925,0 0.80929,0.383644 0.80929,0.854794 z"
     id="path1-5"
     style="fill:#ffffff;stroke-width:0.838276" /></svg>
