<?xml version="1.0" encoding="UTF-8" standalone="no"?>
<svg
   version="1.1"
   viewBox="-5 -10 92.458793 93.07692"
   id="svg43"
   width="92.458794"
   height="93.07692"
   xml:space="preserve"
   xmlns="http://www.w3.org/2000/svg"
   xmlns:svg="http://www.w3.org/2000/svg"><defs
     id="defs43" /><rect
     style="display:none;fill:#ff5555;stroke:#000000;stroke-width:0.0488079;stroke-linejoin:round"
     id="rect43"
     width="92.409988"
     height="93.028114"
     x="-4.975596"
     y="-9.9755964" /><g
     id="g44"
     transform="matrix(0.70709904,0,0,0.70709904,141.14596,143.24585)"
     style="fill:#ffffff"><g
       id="g43"
       transform="translate(-190.00232,-200.99429)"
       style="fill:#ffffff"><path
         d="m 95.312,69.582 -4.5508,-2.625 c 0.4375,-2.3125 0.4375,-4.5312 0,-6.8438 l 4.5508,-2.625 c 0.5,-0.29297 0.66797,-0.92578 0.38672,-1.4258 l -5.207,-9.0195 c -0.26953,-0.48828 -0.94922,-0.66797 -1.4258,-0.38672 l -1.5625,0.90625 v -28.824 c 0,-3.4492 -2.8008,-6.25 -6.25,-6.25 h -70.836 c -3.4492,0 -6.25,2.8008 -6.25,6.25 0.019531,5.8633 -0.011719,43.262 0,50 0,3.4492 2.8008,6.25 6.25,6.25 h 40.875 l 2.9062,5.0312 c 0.26953,0.48828 0.94922,0.66797 1.4258,0.38672 l 4.5508,-2.625 c 1.7617,1.5 3.7812,2.6758 5.918,3.4375 v 5.2383 c 0,0.57422 0.46875,1.043 1.043,1.043 h 10.418 c 0.57422,0 1.043,-0.46875 1.043,-1.043 v -5.2383 c 2.1367,-0.76172 4.1562,-1.9375 5.918,-3.4375 l 4.5508,2.625 c 0.48047,0.29297 1.1562,0.10547 1.4258,-0.38672 0,0 5.207,-9.0195 5.207,-9.0195 0.29297,-0.5 0.11328,-1.1367 -0.38672,-1.4258 z M 6.25,18.75 c 0,-2.3008 1.8633,-4.168 4.168,-4.168 H 81.25 c 2.3008,0 4.168,1.8633 4.168,4.168 v 8.332 H 6.25 Z m 4.168,54.168 C 8.1172,72.918 6.25,71.0547 6.25,68.75 V 29.168 h 79.168 v 19.605 l -0.90625,0.51953 c -1.7617,-1.5 -3.7812,-2.6758 -5.918,-3.4375 v -5.2383 c 0,-0.57422 -0.46875,-1.043 -1.043,-1.043 h -10.418 c -0.57422,0 -1.043,0.46875 -1.043,1.043 v 5.2383 c -2.1367,0.76172 -4.1562,1.9375 -5.918,3.4375 l -4.5508,-2.625 c -0.48047,-0.29297 -1.1562,-0.10547 -1.4258,0.38672 0,0 -5.207,9.0195 -5.207,9.0195 -0.29297,0.5 -0.11328,1.1367 0.38672,1.4258 l 4.543,2.625 c -0.4375,2.3242 -0.4375,4.5195 0,6.8438 l -4.543,2.625 c -0.5,0.29297 -0.66797,0.92578 -0.38672,1.4258 l 1.1055,1.9062 h -39.676 z m 78.781,5.1641 -4.3008,-2.4883 c -0.39453,-0.23047 -0.89453,-0.17578 -1.2305,0.13672 -1.8438,1.7188 -4.0742,3.0117 -6.4258,3.7305 -0.4375,0.13672 -0.73828,0.54297 -0.73828,1 v 4.9492 h -8.332 v -4.9492 c 0,-0.45703 -0.30078,-0.86328 -0.73828,-1 -2.3555,-0.71875 -4.5742,-2.0117 -6.4258,-3.7305 -0.33203,-0.3125 -0.83203,-0.36328 -1.2305,-0.13672 l -4.3008,2.4883 -4.168,-7.2188 4.293,-2.4805 c 0.39453,-0.23047 0.59375,-0.6875 0.5,-1.1367 -0.28125,-1.25 -0.42578,-2.5 -0.42578,-3.7188 0,-1.2188 0.14453,-2.457 0.42578,-3.7188 0.10547,-0.44922 -0.10547,-0.90625 -0.5,-1.1367 l -4.293,-2.4805 4.168,-7.2188 4.3008,2.4883 c 0.39453,0.23047 0.89453,0.16797 1.2305,-0.13672 1.8438,-1.7188 4.0742,-3.0117 6.4258,-3.7305 0.4375,-0.13672 0.73828,-0.54297 0.73828,-1 v -4.9492 h 8.332 v 4.9492 c 0,0.45703 0.30078,0.86328 0.73828,1 2.3555,0.71875 4.5742,2.0117 6.4258,3.7305 0.33203,0.3125 0.83203,0.36328 1.2305,0.13672 l 4.3008,-2.4883 4.168,7.2188 -4.293,2.4805 c -0.39453,0.23047 -0.59375,0.6875 -0.5,1.1367 0.28125,1.25 0.42578,2.5 0.42578,3.7188 0,1.2188 -0.14453,2.457 -0.42578,3.7188 -0.10547,0.44922 0.10547,0.90625 0.5,1.1367 l 4.293,2.4805 z"
         id="path1-6"
         style="fill:#ffffff" /><path
         d="m 72.344,54.168 c -5.168,0 -9.375,4.207 -9.375,9.375 0.51172,12.438 18.238,12.438 18.75,0 0,-5.168 -4.207,-9.375 -9.375,-9.375 z m 0,16.664 c -4.0195,0 -7.293,-3.2695 -7.293,-7.293 0.36328,-9.6562 14.219,-9.6562 14.582,0 0,4.0195 -3.2695,7.293 -7.293,7.293 z"
         id="path2-1"
         style="fill:#ffffff" /><path
         d="m 13.543,18.75 c -2.75,0.07422 -2.75,4.0938 0,4.168 2.75,-0.07422 2.75,-4.0938 0,-4.168 z"
         id="path3-8"
         style="fill:#ffffff" /><path
         d="m 21.875,18.75 c -2.75,0.07422 -2.75,4.0938 0,4.168 2.75,-0.07422 2.75,-4.0938 0,-4.168 z"
         id="path4-7"
         style="fill:#ffffff" /><path
         d="m 30.207,18.75 c -2.75,0.07422 -2.75,4.0938 0,4.168 2.75,-0.07422 2.75,-4.0938 0,-4.168 z"
         id="path5-9"
         style="fill:#ffffff" /><path
         d="m 23.699,41.949 c -0.375,-0.4375 -1.043,-0.48047 -1.4688,-0.09375 l -8.4062,7.3633 c -0.23047,0.19922 -0.35547,0.48047 -0.35547,0.78125 0,0.30078 0.125,0.58203 0.35547,0.78125 l 8.4062,7.3633 c 1.0195,0.89453 2.3945,-0.66797 1.375,-1.5625 l -7.5117,-6.582 7.5117,-6.582 c 0.4375,-0.375 0.48047,-1.043 0.09375,-1.4688 z"
         id="path6-2"
         style="fill:#ffffff" /><path
         d="m 36.105,41.855 c -1.0312,-0.89453 -2.3945,0.66797 -1.375,1.5625 l 7.5117,6.582 -7.5117,6.582 c -0.73047,0.59375 -0.23828,1.8633 0.6875,1.8242 0.23828,0 0.48828,-0.08203 0.6875,-0.26172 l 8.4062,-7.3633 c 0.46875,-0.39453 0.46875,-1.1758 0,-1.5625 l -8.4062,-7.3633 z"
         id="path7-0"
         style="fill:#ffffff" /><path
         d="m 31.938,38.887 c -0.55078,-0.13672 -1.125,0.19922 -1.2617,0.76172 l -5.043,20.219 c -0.13672,0.5625 0.19922,1.125 0.76172,1.2617 0.54297,0.13672 1.125,-0.19922 1.2617,-0.76172 l 5.043,-20.219 C 32.83644,39.5862 32.5005,39.0237 31.938,38.887 Z"
         id="path8-23"
         style="fill:#ffffff" /></g></g></svg>
