<?xml version="1.0" encoding="UTF-8" standalone="no"?>
<svg
   version="1.1"
   viewBox="-5 -10 92.458793 93.07692"
   id="svg43"
   width="92.458794"
   height="93.07692"
   xml:space="preserve"
   xmlns="http://www.w3.org/2000/svg"
   xmlns:svg="http://www.w3.org/2000/svg"><defs
     id="defs43" /><rect
     style="display:none;fill:#ff5555;stroke:#000000;stroke-width:0.0488079;stroke-linejoin:round"
     id="rect43"
     width="92.409988"
     height="93.028114"
     x="-4.975596"
     y="-9.9755964" /><g
     id="g19"
     style="fill:#ffffff"
     transform="matrix(0.13254733,0,0,0.13254733,8.0552351,1.6390005)"><g
       id="g1"
       style="fill:#ffffff"><path
         d="M 455,452.658 H 57 c -16.542,0 -30,-13.458 -30,-30 v -238 c 0,-16.542 13.458,-30 30,-30 h 323.563 c 1.389,0 2.679,0.721 3.406,1.904 0.729,1.183 0.79,2.659 0.164,3.899 l -20.197,40 c -0.68,1.348 -2.061,2.197 -3.57,2.197 H 155 v 202 h 282 v -202 h -31.824 c -1.389,0 -2.679,-0.721 -3.406,-1.904 -0.729,-1.183 -0.79,-2.659 -0.164,-3.899 l 20.197,-40 c 0.68,-1.348 2.061,-2.197 3.57,-2.197 H 455 c 16.542,0 30,13.458 30,30 v 238 c 0,16.542 -13.458,30 -30,30 z m -398,-290 c -12.131,0 -22,9.869 -22,22 v 238 c 0,12.131 9.869,22 22,22 h 398 c 12.131,0 22,-9.869 22,-22 v -238 c 0,-12.131 -9.869,-22 -22,-22 h -27.166 l -16.157,32 H 441 c 2.209,0 4,1.791 4,4 v 210 c 0,2.209 -1.791,4 -4,4 H 151 c -2.209,0 -4,-1.791 -4,-4 v -210 c 0,-2.209 1.791,-4 4,-4 h 206.905 l 16.157,-32 z"
         id="path1-3"
         style="fill:#ffffff" /></g><g
       id="g2"
       style="fill:#ffffff"><path
         d="M 441,412.658 H 151 c -2.209,0 -4,-1.791 -4,-4 v -210 c 0,-2.209 1.791,-4 4,-4 h 209.366 c 1.389,0 2.679,0.721 3.407,1.904 0.728,1.183 0.79,2.659 0.163,3.899 l -18.008,35.665 -3.747,42.918 32.312,-28.495 27.112,-53.693 c 0.68,-1.348 2.061,-2.197 3.57,-2.197 H 441 c 2.209,0 4,1.791 4,4 v 210 c 0,2.208 -1.791,3.999 -4,3.999 z m -286,-8 h 282 v -202 h -29.363 l -26.35,52.184 c -0.229,0.455 -0.543,0.861 -0.925,1.197 l -40.39,35.619 c -1.227,1.081 -2.987,1.31 -4.448,0.57 -1.46,-0.737 -2.324,-2.289 -2.183,-3.918 l 4.684,-53.648 c 0.045,-0.507 0.186,-1.001 0.415,-1.455 l 15.425,-30.549 H 155 Z"
         id="path2-6"
         style="fill:#ffffff" /></g><g
       id="g3"
       style="fill:#ffffff"><path
         d="m 449.831,114.215 c -0.606,0 -1.222,-0.138 -1.8,-0.43 L 412.325,95.756 c -1.973,-0.996 -2.764,-3.402 -1.768,-5.374 0.994,-1.974 3.401,-2.764 5.373,-1.768 l 35.706,18.029 c 1.973,0.996 2.764,3.402 1.768,5.374 -0.703,1.394 -2.112,2.198 -3.573,2.198 z"
         id="path3-7"
         style="fill:#ffffff" /></g><g
       id="g4"
       style="fill:#ffffff"><path
         d="m 337.326,292.658 c -0.613,0 -1.23,-0.141 -1.802,-0.43 -1.46,-0.737 -2.324,-2.289 -2.182,-3.918 l 4.684,-53.648 c 0.044,-0.507 0.185,-1.001 0.414,-1.455 L 419.572,72.528 c 4.106,-8.134 12.322,-13.187 21.439,-13.187 3.776,0 7.411,0.868 10.802,2.58 11.813,5.965 16.57,20.428 10.605,32.241 l -81.132,160.679 c -0.229,0.455 -0.543,0.861 -0.925,1.197 l -40.39,35.619 c -0.745,0.659 -1.69,1.001 -2.645,1.001 z m 8.603,-56.533 -3.747,42.918 32.312,-28.495 80.785,-159.991 c 3.977,-7.875 0.805,-17.518 -7.07,-21.494 -2.263,-1.143 -4.684,-1.722 -7.196,-1.722 -6.081,0 -11.561,3.369 -14.299,8.792 z"
         id="path4-5"
         style="fill:#ffffff" /></g><g
       id="g5"
       style="fill:#ffffff"><path
         d="m 449.831,114.215 c -0.606,0 -1.222,-0.138 -1.8,-0.43 L 412.325,95.756 c -1.973,-0.996 -2.764,-3.402 -1.768,-5.374 0.994,-1.974 3.401,-2.764 5.373,-1.768 l 35.706,18.029 c 1.973,0.996 2.764,3.402 1.768,5.374 -0.703,1.394 -2.112,2.198 -3.573,2.198 z"
         id="path5-3"
         style="fill:#ffffff" /></g><g
       id="g6"
       style="fill:#ffffff"><path
         d="M 371,372.658 H 251 c -2.209,0 -4,-1.791 -4,-4 0,-2.209 1.791,-4 4,-4 h 120 c 8.822,0 16,-7.178 16,-16 0,-8.822 -7.178,-16 -16,-16 H 231 c -13.233,0 -24,-10.767 -24,-24 0,-13.233 10.767,-24 24,-24 h 70 c 2.209,0 4,1.791 4,4 0,2.209 -1.791,4 -4,4 h -70 c -8.822,0 -16,7.178 -16,16 0,8.822 7.178,16 16,16 h 140 c 13.233,0 24,10.767 24,24 0,13.233 -10.767,24 -24,24 z"
         id="path6-5"
         style="fill:#ffffff" /></g><g
       id="g7"
       style="fill:#ffffff"><path
         d="m 221,378.658 c -2.631,0 -5.21,-1.07 -7.07,-2.931 -1.86,-1.859 -2.93,-4.439 -2.93,-7.069 0,-2.63 1.069,-5.21 2.93,-7.07 1.861,-1.86 4.439,-2.93 7.07,-2.93 2.63,0 5.21,1.069 7.069,2.93 1.86,1.86 2.931,4.44 2.931,7.07 0,2.63 -1.07,5.21 -2.931,7.069 -1.859,1.861 -4.439,2.931 -7.069,2.931 z"
         id="path7-6"
         style="fill:#ffffff" /></g><g
       id="g8"
       style="fill:#ffffff"><path
         d="m 191,378.658 c -2.631,0 -5.21,-1.07 -7.07,-2.931 -1.86,-1.859 -2.93,-4.439 -2.93,-7.069 0,-2.63 1.069,-5.21 2.93,-7.07 1.861,-1.86 4.439,-2.93 7.07,-2.93 2.63,0 5.21,1.069 7.069,2.93 1.86,1.86 2.931,4.44 2.931,7.07 0,2.63 -1.07,5.21 -2.931,7.069 -1.859,1.861 -4.439,2.931 -7.069,2.931 z"
         id="path8-2"
         style="fill:#ffffff" /></g><g
       id="g9"
       style="fill:#ffffff"><path
         d="M 111,252.658 H 71 c -2.209,0 -4,-1.791 -4,-4 v -30 c 0,-2.209 1.791,-4 4,-4 h 40 c 2.209,0 4,1.791 4,4 v 30 c 0,2.209 -1.791,4 -4,4 z m -36,-8 h 32 v -22 H 75 Z"
         id="path9-9"
         style="fill:#ffffff" /></g><g
       id="g10"
       style="fill:#ffffff"><path
         d="m 481,342.658 h -40 c -2.209,0 -4,-1.791 -4,-4 v -30 c 0,-2.209 1.791,-4 4,-4 h 40 c 2.209,0 4,1.791 4,4 v 30 c 0,2.209 -1.791,4 -4,4 z m -36,-8 h 32 v -22 h -32 z"
         id="path10-1"
         style="fill:#ffffff" /></g><g
       id="g11"
       style="fill:#ffffff"><path
         d="m 481,312.658 h -40 c -2.209,0 -4,-1.791 -4,-4 v -30 c 0,-2.209 1.791,-4 4,-4 h 40 c 2.209,0 4,1.791 4,4 v 30 c 0,2.209 -1.791,4 -4,4 z m -36,-8 h 32 v -22 h -32 z"
         id="path11-2"
         style="fill:#ffffff" /></g><g
       id="g12"
       style="fill:#ffffff"><path
         d="m 481,282.658 h -40 c -2.209,0 -4,-1.791 -4,-4 v -30 c 0,-2.209 1.791,-4 4,-4 h 40 c 2.209,0 4,1.791 4,4 v 30 c 0,2.209 -1.791,4 -4,4 z m -36,-8 h 32 v -22 h -32 z"
         id="path12-7"
         style="fill:#ffffff" /></g><g
       id="g13"
       style="fill:#ffffff"><path
         d="M 111,282.658 H 71 c -2.209,0 -4,-1.791 -4,-4 v -30 c 0,-2.209 1.791,-4 4,-4 h 40 c 2.209,0 4,1.791 4,4 v 30 c 0,2.209 -1.791,4 -4,4 z m -36,-8 h 32 v -22 H 75 Z"
         id="path13-0"
         style="fill:#ffffff" /></g><g
       id="g14"
       style="fill:#ffffff"><path
         d="M 111,312.658 H 71 c -2.209,0 -4,-1.791 -4,-4 v -30 c 0,-2.209 1.791,-4 4,-4 h 40 c 2.209,0 4,1.791 4,4 v 30 c 0,2.209 -1.791,4 -4,4 z m -36,-8 h 32 v -22 H 75 Z"
         id="path14-9"
         style="fill:#ffffff" /></g><g
       id="g15"
       style="fill:#ffffff"><path
         d="M 111,342.658 H 71 c -2.209,0 -4,-1.791 -4,-4 v -30 c 0,-2.209 1.791,-4 4,-4 h 40 c 2.209,0 4,1.791 4,4 v 30 c 0,2.209 -1.791,4 -4,4 z m -36,-8 h 32 v -22 H 75 Z"
         id="path15-3"
         style="fill:#ffffff" /></g><g
       id="g16"
       style="fill:#ffffff"><path
         d="M 111,372.658 H 71 c -2.209,0 -4,-1.791 -4,-4 v -30 c 0,-2.209 1.791,-4 4,-4 h 40 c 2.209,0 4,1.791 4,4 v 30 c 0,2.209 -1.791,4 -4,4 z m -36,-8 h 32 v -22 H 75 Z"
         id="path16-6"
         style="fill:#ffffff" /></g><g
       id="g17"
       style="fill:#ffffff"><path
         d="M 361,122.658 H 121 c -2.209,0 -4,-1.791 -4,-4 0,-2.209 1.791,-4 4,-4 h 240 c 2.209,0 4,1.791 4,4 0,2.209 -1.791,4 -4,4 z"
         id="path17-0"
         style="fill:#ffffff" /></g><g
       id="g18"
       style="fill:#ffffff"><path
         d="M 191,92.658 H 31 c -2.209,0 -4,-1.791 -4,-4 0,-2.209 1.791,-4 4,-4 h 160 c 2.209,0 4,1.791 4,4 0,2.209 -1.791,4 -4,4 z"
         id="path18-6"
         style="fill:#ffffff" /></g></g></svg>
