<?xml version="1.0" encoding="UTF-8" standalone="no"?>
<svg
   version="1.1"
   viewBox="-5 -10 92.458793 93.07692"
   id="svg43"
   width="92.458794"
   height="93.07692"
   xmlns="http://www.w3.org/2000/svg"
   xmlns:svg="http://www.w3.org/2000/svg">
  <defs
     id="defs43" />
  <rect
     style="display:none;fill:#ff5555;stroke:#000000;stroke-width:0.0488079;stroke-linejoin:round"
     id="rect43"
     width="92.409988"
     height="93.028114"
     x="-4.975596"
     y="-9.9755964" />
  <g
     id="g42"
     style="fill:#ffffff"
     transform="translate(-9.0076016,-15.158848)">
    <path
       d="m 80.188,68.746 h -0.88672 c -0.71094,0.08594 -0.68359,0.37109 0,0.44922 H 80.188 c 0.34766,-0.03906 0.51953,-0.125 0.51953,-0.22266 0,-0.10156 -0.17188,-0.18359 -0.51953,-0.22656 z"
       id="path1"
       style="fill:#ffffff" />
    <path
       d="m 84.043,68.746 h -0.88672 c -0.70312,0.08594 -0.69141,0.37109 0,0.44922 H 84.043 c 0.34766,-0.03906 0.51953,-0.125 0.51953,-0.22266 0,-0.10156 -0.17188,-0.18359 -0.51953,-0.22656 z"
       id="path2"
       style="fill:#ffffff" />
    <path
       d="m 87.102,66.035 c 0.08594,0.60156 0.37109,0.59375 0.44922,0 v -0.76172 c -0.07813,-0.59766 -0.36328,-0.59766 -0.44922,0 z"
       id="path3"
       style="fill:#ffffff" />
    <path
       d="m 87.102,62.727 c 0.08594,0.60156 0.37109,0.59375 0.44922,0 v -0.76172 c -0.07813,-0.59766 -0.36328,-0.59766 -0.44922,0 z"
       id="path4"
       style="fill:#ffffff" />
    <path
       d="m 87.547,59.418 v -0.76172 c -0.07813,-0.59766 -0.36328,-0.59766 -0.44922,0 V 59.418 c 0.08594,0.60156 0.37109,0.59375 0.44922,0 z"
       id="path5"
       style="fill:#ffffff" />
    <path
       d="m 87.102,48.73 v 0.76172 c 0.08594,0.60156 0.37109,0.59375 0.44922,0 V 48.73 c -0.08203,-0.59766 -0.36719,-0.59766 -0.44922,0 z"
       id="path6"
       style="fill:#ffffff" />
    <path
       d="m 87.547,45.422 c -0.07813,-0.59766 -0.36328,-0.59766 -0.44922,0 v 0.76172 c 0.08594,0.60156 0.37109,0.59375 0.44922,0 z"
       id="path7"
       style="fill:#ffffff" />
    <path
       d="m 87.547,42.113 c -0.07813,-0.59766 -0.36328,-0.59766 -0.44922,0 v 0.76172 c 0.08594,0.60156 0.37109,0.59375 0.44922,0 z"
       id="path8"
       style="fill:#ffffff" />
    <path
       d="m 87.547,38.805 c -0.07813,-0.59766 -0.36328,-0.59766 -0.44922,0 v 0.76172 c 0.08594,0.60156 0.37109,0.59375 0.44922,0 z"
       id="path9"
       style="fill:#ffffff" />
    <path
       d="m 87.547,35.496 c -0.07813,-0.59766 -0.36328,-0.59766 -0.44922,0 v 0.76172 c 0.08594,0.60156 0.37109,0.59375 0.44922,0 z"
       id="path10"
       style="fill:#ffffff" />
    <path
       d="m 70.828,19.055 h -24.75 c -3.25,0 -5.8984,2.6445 -5.8984,5.8945 v 11.801 c -0.88281,0.55469 -1.4141,0.88672 -1.5742,0.96484 -0.23828,-0.16406 -1.375,-0.98047 -2.1836,-1.5625 0.08594,-0.21875 0.14453,-0.42188 0.16016,-0.58984 0.0039,-0.03516 -0.01172,-0.07031 -0.03516,-0.09375 -0.58203,-0.62109 -1.1211,-1.1836 -2.0195,-1.9336 0.70312,-1.5586 0.76562,-4.0273 -0.35938,-5.5547 -1.1719,-1.5898 -0.33203,-2.3906 -1.4258,-5.1484 -0.375,-0.94531 -0.89453,-1.5273 -1.5508,-1.7305 -0.76953,-0.23437 -1.4648,0.13281 -1.6602,0.25 -1.4688,-0.54297 -2.668,-0.52734 -3.5664,0.04297 -1.4922,0.94922 -1.832,3.2148 -1.9531,4.8359 -0.15234,2.0234 -1.4922,1.0781 -3.2305,1.4648 -1.2461,0.27734 -1.4141,1.2266 -1.5781,2.1484 -0.26562,1.5156 -0.42969,1.6016 -1.4219,1.9844 -0.85547,0.33203 -2.0273,0.78516 -2.7461,2.832 -1.0195,2.918 1.1836,4.8008 1.8828,5.3047 0.03516,0.01953 0.05469,0.05859 0.12109,0.04687 l 0.23438,-0.03516 c -1.4883,1.9609 -3.3984,4.7695 -4.4531,7.457 -0.1875,0.23828 -0.43359,0.59375 -0.66797,0.98047 l -1.2617,-0.57812 c -0.14062,-0.0625 -0.30859,-0.0039 -0.375,0.14062 l -3.2188,7.0625 c -0.0625,0.14063 -0.00391,0.30859 0.14062,0.375 l 7.0625,3.2148 c 0.14453,0.06641 0.3125,0.0039 0.375,-0.13672 l 3.2188,-7.0625 c 0.0625,-0.14453 0.0039,-0.3125 -0.14062,-0.375 l -2.0781,-0.75391 c 0.09766,-0.45703 -0.25,-1.3047 -0.41406,-1.6719 0.47266,-0.55859 4.6758,-5.5352 6.5625,-7.5586 -0.78516,1.8945 -2.5352,6.25 -2.418,7.0938 0.05078,0.33594 0.46094,0.60938 1.2461,0.83203 -0.41016,2.8516 1.375,6.6172 2.7852,9.2383 -2.1367,2.8594 -8.8242,11.891 -8.6328,12.504 0.04687,0.14453 0.21875,0.40234 0.48047,0.72266 -0.23438,0.34766 -0.58984,0.88672 -1.1367,1.707 -0.04687,-0.02344 -0.10156,-0.03125 -0.15625,-0.01172 -0.59375,0.20703 -1.9414,0.78906 -2.4531,1.9766 -0.05078,0.11328 -0.03125,0.24609 0.03906,0.34766 l 3.4102,5.0625 c 0.08984,0.14844 0.25,0.23438 0.42188,0.23438 h 4.418 c 0.29688,0 0.53125,-0.25781 0.49609,-0.55469 -0.05078,-0.42188 -0.04688,-0.78125 -0.46875,-1.0664 l -1.7891,-1.1914 c -0.17578,-0.11719 -0.26172,-0.33594 -0.20312,-0.53906 0.18359,-0.66797 0.49219,-2.125 -0.26172,-2.3398 -0.02734,-0.0078 -0.05469,-0.01172 -0.08203,-0.01172 0.07422,-0.16016 0.21094,-0.49219 0.44141,-1.0508 0.35547,0.25391 1.0195,0.6875 1.4492,0.625 0.33594,-0.04688 1.7266,-0.92578 3.5156,-2.332 -0.10547,2.4766 -0.11328,2.625 -0.11328,2.6602 -0.01953,0.41406 1.0273,0.46094 1.4453,0.48047 -0.01953,0.5 -0.03906,1.3203 -0.05859,1.8945 -0.03516,-0.0078 -0.07422,-0.0039 -0.10547,0.01953 -0.40625,0.24609 -1.4961,1.1094 -1.1484,3.1641 0.02734,0.16406 0.16797,0.28516 0.33594,0.28516 h 9.6445 c 0.22656,0 0.38672,-0.21484 0.32812,-0.42969 -0.0625,-0.125 -0.12891,-1.082 -1.1094,-1.3711 -0.77734,-0.23047 -1.8945,-0.59766 -2.1992,-0.90625 -0.46094,-0.46094 -1.25,-1.4414 -2.1367,-1.1719 0.0078,-0.21484 0,-0.67969 -0.03125,-1.707 0.67578,-0.13672 1.1953,-0.32812 1.3477,-0.58203 0.21875,-0.36328 0.82812,-5.2148 1.375,-9.8984 1.2422,-1.6641 2.2578,-3.4062 2.793,-5.1211 0.72266,-2.3125 -0.30469,-6.75 -1.3008,-10.406 0.92188,-0.16016 1.5039,-0.37109 1.7227,-0.62109 0.18359,-0.19922 -0.05078,-3.0859 -0.69531,-8.5625 0.86719,1.4336 2.2188,2.4805 3.9141,2.4805 1.043,0 2.0391,-0.69922 3.0547,-1.5938 v 35.809 c 0,2.3164 1.8867,4.2031 4.2109,4.2031 h 28.125 c 2.3203,0 4.2109,-1.8867 4.2109,-4.2031 l -0.0078,-51.785 c 0,-3.25 -2.6445,-5.8984 -5.8984,-5.8984 z m -13.77,1.4102 h 4.582 c 0.17578,0 0.32812,0.14453 0.32812,0.32812 0,0.17969 -0.14844,0.32812 -0.32812,0.32812 h -4.582 c -0.18359,0 -0.32812,-0.14844 -0.32812,-0.32812 0,-0.18359 0.14453,-0.32812 0.32812,-0.32812 z m -1.5703,-0.14453 c 0.26172,0 0.46875,0.21094 0.46875,0.46875 0,0.26172 -0.21094,0.46875 -0.46875,0.46875 -0.26172,0 -0.46875,-0.21094 -0.46875,-0.46875 -0.0039,-0.25781 0.20703,-0.46875 0.46875,-0.46875 z m -29.121,11.172 c 0.0078,-0.03516 0.01953,-0.17578 0.12891,-0.35938 0.08984,-0.14453 0.04297,0.1875 0.20703,-2.2539 0.93359,0.51953 2.2305,1.0703 3.2891,1.1797 -0.125,0.78516 -0.12891,0.77734 -0.09766,0.81641 0.01172,0.01563 0.02344,0.03125 0.04297,0.04297 0.17578,0.09375 0.55859,0.33984 0.66406,0.50391 0.11719,0.19531 0.14453,0.52344 -0.01562,0.82031 -0.31641,0.58594 -1.1641,0.6875 -1.8281,0.63281 -0.74219,-0.05859 -2.5391,-0.48438 -2.3906,-1.3828 z m 0.28125,-2.9102 c -0.90234,0.01172 -1.3359,-0.35938 -1.3008,-0.34375 -0.26562,-0.21484 -0.35156,-0.51953 -0.31641,-0.86719 0.03906,-0.33594 0.13281,-0.55859 0.28906,-0.67969 0.55469,-0.42578 1.8633,0.46875 2.5469,-0.38672 0.74609,-0.92578 2.0859,-3.1523 2.3438,-3.543 0.21484,0.05859 0.91797,0.34375 1.1445,0.71094 0.17188,0.28906 0.38281,0.80859 0.5,1.1406 1.3086,3.6914 -0.36328,4.8984 -0.35547,4.8672 -1.082,0.98047 -3.5625,-0.22266 -4.8516,-0.89844 z m -11.406,19.957 c -0.02734,0.03516 -0.03906,0.08203 -0.01953,0.125 0.27344,0.58984 0.47656,1.2695 0.4375,1.5625 l -0.85547,-0.30859 c -0.25,-0.21484 -0.21094,-0.21484 -0.27734,-0.21484 -0.05469,-0.0039 -0.10938,0.03906 -0.12109,0.08594 -0.0039,0.01953 -0.48828,1.9961 -1.4258,2.3555 -0.28906,0.10938 -0.58594,0.05469 -0.91406,-0.17188 -1.6289,-1.1328 0.94141,-4.3633 0.96875,-4.4297 1.2578,-3.2266 3.9531,-7 6.2031,-9.6289 0.83203,0.92188 2.0625,1.7305 3.1172,2.3789 -0.01953,0.04687 -0.04687,0.10938 -0.07813,0.1875 -1.4492,1.4688 -5.707,6.4805 -7.0352,8.0586 z m 2.7148,25.383 c -0.64062,1.5391 -0.41797,1.0078 -0.46484,1.125 -0.74609,0.33203 -1.7344,0.70703 -2.3359,0.14844 -0.70703,-0.66016 -0.60156,-1.7539 -0.625,-1.8633 0.13672,-0.20703 0.70703,-1.0625 1.1172,-1.6758 0.57031,0.67578 1.4336,1.543 2.2461,2.1719 z m 9.8164,3.1016 c -0.09375,0.26172 -0.53125,1.3047 -1.4531,1.2305 -1.1055,-0.08203 -1.543,-0.60547 -1.6914,-0.85547 0,-0.03516 0.03125,-1.168 0.05859,-1.9258 0.94922,0.03125 2.1211,-0.03516 3.0469,-0.19531 0.01563,0.63672 0.03516,1.5742 0.03906,1.7461 z m 5.9609,-28.57 c -0.10938,0.125 -0.47266,0.36328 -1.707,0.56641 -2.8164,0.47656 -8.4531,0.47266 -11.012,-0.21875 -0.97266,-0.26172 -1.1523,-0.53125 -1.1719,-0.66797 -0.12891,-0.9375 2.4336,-7.0273 2.7148,-7.7148 0.31641,0.21484 1.0742,0.72266 1.4023,0.53125 1.2734,-0.83594 2.918,-4.0195 3.168,-5.6992 0.02344,-0.15234 -0.20703,-0.1875 -0.23047,-0.03516 -0.24219,1.6133 -1.8672,4.75 -3.0586,5.5352 -0.03516,0.01953 -0.25781,0.08984 -1.2109,-0.56641 -0.01953,-0.01172 -0.03516,-0.02344 -0.04687,-0.03125 -0.0039,-0.0039 -0.0078,-0.0039 -0.0078,-0.0078 -0.0078,-0.0039 -0.01563,-0.01172 -0.02344,-0.01563 -0.1875,-0.11719 -0.35938,-0.22266 -0.51953,-0.32422 -1.3594,-0.86328 -1.8359,-1.2891 -2.6914,-2.1562 -0.20703,-0.23828 -0.42188,-0.53516 -0.55469,-0.82422 1.8281,-2.1992 4.6875,-4.6875 7.4023,-5.5547 -0.39844,1.1992 1.2891,1.7305 2.5508,1.8398 0.8125,0.07031 1.707,-0.0625 2.0781,-0.78516 0.14062,-0.26953 0.16016,-0.57422 0.07813,-0.83203 1.9766,0.83984 4.0312,2.5195 5.457,4.0938 -0.15625,1.1055 -2.0625,3.6289 -3.1953,3.7422 0.0625,-1.5664 -0.09375,-4.2617 -0.56641,-5.4961 -0.05469,-0.14453 -0.27344,-0.0625 -0.21875,0.08203 0.47656,1.2422 0.62109,4.0078 0.54688,5.5312 -0.01172,0.05859 1.0156,8.5195 0.81641,9.0078 z m -0.52344,-8.8867 c 1.1367,-0.16797 2.6094,-2.0703 3.1211,-3.1914 0.55078,0.39844 2.1406,1.543 2.2109,1.5781 0.125,0.05859 0.41016,-0.14062 5.1055,-3.1289 0.07812,-0.05078 0.69922,-1.1836 1.3516,-1.4023 0.28906,-0.08984 0.54297,0.09375 0.57031,0.26953 0.08203,0.50391 -1.0156,1.4414 -1.4453,1.7617 -0.08984,0.06641 -0.03125,0.03906 -0.0039,2.4883 H 44.1091 c -0.5,-0.04297 -0.63281,-0.14453 -0.72266,-0.08984 -2.1445,1.375 -4.2344,4.4453 -6.2617,4.4453 -1.7422,0 -3.1445,-1.2148 -3.9141,-2.7305 z m 10.867,-11.379 c 0,-0.30859 0.24609,-0.5625 0.54297,-0.56641 l 27.215,-0.25391 c 0.33594,0.0039 0.55859,0.25781 0.56641,0.54687 l 0.25781,18.305 v 0.0039 c 0.01172,0.30859 -0.23828,0.55078 -0.54297,0.5625 l -27.215,0.25391 c -0.33594,-0.0039 -0.55078,-0.25391 -0.55859,-0.54297 l -0.11719,-8.3203 c 0.21484,-0.03906 0.11328,0.07813 0.09375,-2.5703 1.1289,-0.85938 2.25,-2.25 0.87891,-2.4414 -0.33594,-0.02734 -0.70312,0.23828 -1.0391,0.60547 z m 31.176,48.555 c 0,1.5547 -1.2656,2.8164 -2.8203,2.8164 h -28.129 c -1.5586,0 -2.8203,-1.2656 -2.8203,-2.8203 v -37.016 c 0.64844,-0.60938 1.3164,-1.2109 1.9922,-1.6523 0.09766,0.01953 0.32422,0.0625 0.51172,0.08594 l 0.11719,8.3398 c 0.0078,0.4375 0.36328,0.76953 0.78125,0.76953 H 44.902 l 27.215,-0.25391 c 0.4375,-0.01563 0.78906,-0.36719 0.77344,-0.80078 l -0.25781,-18.301 c -0.0078,-0.44141 -0.37109,-0.78125 -0.80078,-0.77344 l -27.215,0.25391 c -0.42578,0.0078 -0.77344,0.36719 -0.77344,0.80078 l 0.08203,5.8516 c -0.20312,0.26172 -0.32422,0.45312 -0.42188,0.59766 -0.75781,0.48438 -1.4336,0.91016 -2.0195,1.2852 v -10.977 c 0,-2.4844 2.0234,-4.5078 4.5078,-4.5078 h 5.9883 c 0.69141,0 1.3359,0.36719 1.6914,0.95703 0.25,0.41797 0.69141,0.66797 1.1758,0.66797 h 7.0391 c 0.48828,0 0.92578,-0.25 1.1758,-0.66797 0.33594,-0.55859 0.96094,-0.95703 1.6914,-0.95703 h 5.9883 c 2.4883,0 4.5117,2.0234 4.5117,4.5117 z"
       id="path11"
       style="fill:#ffffff" />
    <path
       d="m 48.02,43.02 h 20.699 c 0.32812,0 0.49219,-0.39453 0.25781,-0.625 l -6.168,-6.168 c -0.29688,-0.29687 -0.78125,-0.29687 -1.0781,0 l -2.8203,2.8242 -3.3672,-3.3672 c -0.30078,-0.29688 -0.78125,-0.29688 -1.0781,0 l -6.7031,6.7109 c -0.23438,0.23047 -0.07031,0.625 0.25781,0.625 z"
       id="path12"
       style="fill:#ffffff" />
    <path
       d="m 59.398,35.465 c 1.375,0 2.4961,-1.1172 2.4961,-2.4961 0,-1.3789 -1.1172,-2.5 -2.4961,-2.5 -1.3789,0 -2.4961,1.1172 -2.4961,2.5 0,1.375 1.1172,2.4961 2.4961,2.4961 z"
       id="path13"
       style="fill:#ffffff" />
    <path
       d="m 43.961,50.219 h 28.812 v 1.2969 H 43.961 Z"
       id="path14"
       style="fill:#ffffff" />
    <path
       d="m 43.961,52.82 h 9.8594 v 1.2969 H 43.961 Z"
       id="path15"
       style="fill:#ffffff" />
    <path
       d="M 71.988,59.09 H 44.746 c -0.49609,0 -0.89844,0.40234 -0.89844,0.89844 v 12.68 c 0,0.49609 0.40234,0.90234 0.89844,0.90234 h 27.242 c 0.49609,0 0.89844,-0.40625 0.89844,-0.90234 v -12.68 C 72.88644,59.49625 72.4841,59.09 71.988,59.09 Z m 0.66797,13.578 c 0,0.37109 -0.30078,0.66797 -0.66797,0.66797 H 44.746 c -0.36719,0 -0.66797,-0.30078 -0.66797,-0.66797 v -12.68 c 0,-0.36719 0.30078,-0.66797 0.66797,-0.66797 h 27.242 c 0.36719,0 0.66797,0.30078 0.66797,0.66797 z"
       id="path16"
       style="fill:#ffffff" />
    <path
       d="m 50.875,61.176 c -2.7227,0 -4.9336,2.2148 -4.9336,4.9336 0,3.5547 3.6602,5.9492 6.8984,4.5234 0.75391,-0.32812 1.3945,-0.88281 1.4258,-0.94922 0.94922,-0.89844 1.543,-2.168 1.543,-3.5742 0,-2.7188 -2.2148,-4.9336 -4.9336,-4.9336 z m -1.2461,7.5312 c 0.26562,0.67578 1.3906,0.8125 2.0391,0.62109 0.39453,-0.11719 0.55078,-0.34375 0.58203,-0.61328 0.66406,0.17578 1.2695,0.49609 1.7305,0.91406 -1.7344,1.5391 -4.3555,1.5938 -6.1602,0.05469 0.47266,-0.44922 1.1055,-0.79297 1.8086,-0.97656 z m -0.49609,-2.5234 c 0.01953,-0.07422 0.05859,-0.15625 0.13281,-0.18359 0.13672,-0.04687 0.35547,0.08594 0.46875,0.17578 0.03125,0.09766 0.13281,0.16406 0.20312,0.16406 0.12109,0 0.15234,-0.12109 0.18359,-0.23828 0.17188,-0.58594 0.29297,-0.85547 0.86328,-1.2422 0.0078,0.04297 0.01953,0.08203 0.03516,0.11719 0.03516,0.08594 0.12891,0.09375 0.18359,0.04297 0.12891,-0.07422 0.44531,-0.08594 0.62891,-0.07422 0.16406,0.0625 0.30859,0.08594 0.4375,0.08203 0.07422,0.86328 0.07813,2.582 -0.76172,2.7812 -1.2148,0.27734 -1.7266,-0.85547 -1.6875,-0.81641 -0.01172,-0.03125 -0.03906,-0.05469 -0.07031,-0.06641 -0.01563,-0.0039 -0.75781,-0.25 -0.61719,-0.74219 z m 2.8867,2.4414 c 0.0078,0.09766 -0.02734,0.21484 -0.09375,0.29297 -0.34375,0.40234 -1.9023,0.36328 -2.0938,-0.33984 0.125,-0.27344 0.17188,-0.62891 0.16016,-0.94922 0.50781,0.49609 1.2227,0.55078 1.6641,0.38281 0.08594,0.40625 0.25781,0.54688 0.36328,0.61328 z m 2.1328,0.84766 c -0.52344,-0.48047 -1.1953,-0.83203 -1.9609,-1.0156 -0.01172,-0.0078 -0.01953,-0.01563 -0.03125,-0.01953 -0.0625,-0.03516 -0.21875,-0.13672 -0.28906,-0.55078 0.73828,-0.51953 0.70312,-2.1016 0.62891,-2.9023 0.58984,-0.21094 0.58594,-1.1211 0.08984,-1.3555 -0.48047,-0.22656 -0.44141,-0.80469 -1.625,-1.0117 -0.94922,-0.16406 -1.7227,0.35937 -2.2383,1.5078 -0.30859,0.69141 0.125,1.5664 0.26563,1.8164 -0.24219,0.37109 -0.08984,0.92188 0.63281,1.1875 0.01953,0.03906 0.05078,0.09766 0.09375,0.16406 0.07031,0.33594 0.05469,0.83594 -0.10156,1.1758 -0.77344,0.19531 -1.4453,0.5625 -1.9648,1.0586 -0.94141,-0.88672 -1.4805,-2.125 -1.4805,-3.418 0,-2.5938 2.1094,-4.7031 4.6992,-4.7031 2.5938,0 4.7031,2.1094 4.7031,4.7031 0,1.3203 -0.54688,2.5117 -1.4219,3.3633 z"
       id="path17"
       style="fill:#ffffff" />
    <path
       d="m 50.66,66.945 c -0.01953,0.0078 -0.02344,0.08203 0.06641,0.1875 0.22656,0.22656 0.50781,0.15625 0.49219,0.10156 -0.01172,-0.05859 -0.24219,-0.0078 -0.41406,-0.17969 -0.08594,-0.07031 -0.12109,-0.12109 -0.14453,-0.10938 z"
       id="path18"
       style="fill:#ffffff" />
    <path
       d="m 51.527,66.73 c 0.0078,-0.08203 -0.01953,-0.26953 -0.03125,-0.34766 -0.04297,-0.17578 -0.09375,-0.25 -0.11719,-0.24609 -0.07031,0.01953 0.10547,0.59375 0.0078,0.62891 -0.11719,0.05078 -0.22656,0.01953 -0.22656,0.04687 -0.01953,0.05859 0.35156,0.15625 0.36719,-0.08203 z"
       id="path19"
       style="fill:#ffffff" />
    <path
       d="m 50.543,65.633 c 0.12891,-0.05469 0.33984,-0.03125 0.34375,-0.08984 0.0039,-0.02344 -0.03906,-0.05469 -0.13672,-0.0625 -0.28125,0.0039 -0.37891,0.14062 -0.34375,0.17188 0.01563,0.01953 0.05859,0.0039 0.13672,-0.01953 z"
       id="path20"
       style="fill:#ffffff" />
    <path
       d="m 51.914,65.352 c 0.08984,0.0039 0.14453,-0.0039 0.14844,-0.02734 0.0039,-0.02344 -0.03516,-0.05859 -0.13672,-0.08594 -0.30859,-0.04297 -0.39844,0.16016 -0.35547,0.18359 0.04688,0.03125 0.125,-0.10156 0.34375,-0.07031 z"
       id="path21"
       style="fill:#ffffff" />
    <path
       d="m 51.82,65.801 c -0.14844,0 -0.14844,0.33203 0,0.33203 0.14453,0 0.05859,-0.33203 0,-0.33203 z"
       id="path22"
       style="fill:#ffffff" />
    <path
       d="m 50.781,65.863 c -0.14844,0 -0.14844,0.33203 0,0.33203 0.14844,0 0.14844,-0.33203 0,-0.33203 z"
       id="path23"
       style="fill:#ffffff" />
    <path
       d="m 50.172,69.871 c 0.42578,0.13672 0.90234,0.125 1.3203,-0.03516 0.48828,-0.21484 0.62891,-0.46484 0.59766,-0.48828 -0.03906,-0.04687 -0.22656,0.125 -0.67578,0.27734 -0.98828,0.36719 -1.8047,-0.29297 -1.8672,-0.21484 -0.02344,0.02734 0.125,0.26953 0.625,0.46094 z"
       id="path24"
       style="fill:#ffffff" />
    <path
       d="m 56.879,63.367 h 14.582 v 2.3945 H 56.879 Z"
       id="path25"
       style="fill:#ffffff" />
    <path
       d="m 56.879,66.68 h 14.582 v 0.39062 H 56.879 Z"
       id="path26"
       style="fill:#ffffff" />
    <path
       d="m 56.879,67.793 h 14.582 v 0.39062 H 56.879 Z"
       id="path27"
       style="fill:#ffffff" />
    <path
       d="m 56.879,68.906 h 8.375 v 0.39062 h -8.375 z"
       id="path28"
       style="fill:#ffffff" />
    <path
       d="m 30.625,28.414 c 0.29297,-0.07812 0.38672,-0.21094 0.375,-0.22266 -0.03516,-0.05078 -0.47656,0.3125 -1.0547,0.0078 -0.24609,-0.12109 -0.36719,-0.19922 -0.38281,-0.17578 -0.03125,0.03906 0.46484,0.51953 1.0625,0.39062 z"
       id="path29"
       style="fill:#ffffff" />
    <path
       d="m 31.133,27.355 c -0.06641,0.04687 -0.10547,0.06641 -0.09766,0.08203 0.01953,0.05859 0.50781,-0.15625 0.34766,-0.36719 -0.14453,-0.20312 -0.3125,-0.21094 -0.5625,-0.64844 -0.16797,-0.28906 -0.24609,-0.44141 -0.27344,-0.42969 -0.01953,0.0078 0.01563,0.17578 0.17578,0.48437 0.38281,0.67188 0.81641,0.57813 0.41016,0.87891 z"
       id="path30"
       style="fill:#ffffff" />
    <path
       d="m 30.93,24.461 c 0.43359,-0.21484 0.68359,0.04297 0.71875,0.0078 0.01953,-0.0078 -0.03125,-0.12891 -0.24219,-0.19141 -0.17969,-0.03906 -0.36719,0.0039 -0.52344,0.08203 -0.08984,0.04687 -0.15625,0.10938 -0.17578,0.16797 -0.01953,0.05859 0.0039,0.08984 0.01563,0.08594 0.01953,-0.0039 0.02344,-0.08203 0.20703,-0.15234 z"
       id="path31"
       style="fill:#ffffff" />
    <path
       d="m 29.887,25.051 c 0.01172,-0.01563 -0.09375,-0.10938 -0.35156,-0.11328 -0.21484,0.01172 -0.41797,0.08594 -0.59375,0.20703 -0.20703,0.16016 -0.20703,0.32031 -0.1875,0.31641 0.02734,0.0078 0.0625,-0.10547 0.25,-0.22656 0.44531,-0.30469 0.86719,-0.14062 0.88281,-0.18359 z"
       id="path32"
       style="fill:#ffffff" />
    <path
       d="m 31.289,25.156 c -0.11719,0.04687 -0.14844,0.23828 -0.07031,0.42188 0.07813,0.1836 0.23438,0.29688 0.34766,0.25 0.11719,-0.04687 0.14844,-0.23828 0.07031,-0.42188 -0.07422,-0.18359 -0.23047,-0.29688 -0.34766,-0.25 z"
       id="path33"
       style="fill:#ffffff" />
    <path
       d="m 29.809,26.641 c 0.11719,-0.04687 0.14844,-0.23828 0.07031,-0.42188 -0.07813,-0.1836 -0.23438,-0.29688 -0.34766,-0.25 -0.11719,0.04687 -0.14844,0.23828 -0.07031,0.42188 0.07812,0.18359 0.23437,0.29688 0.34766,0.25 z"
       id="path34"
       style="fill:#ffffff" />
    <path
       d="m 92.16,50.746 h -9.1758 c -0.3125,0 -0.56641,0.19922 -0.56641,0.44141 v 5.9648 c 0,0.24609 0.25391,0.44531 0.56641,0.44531 H 92.16 c 0.3125,0 0.56641,-0.19922 0.56641,-0.44531 v -5.9648 c 0,-0.24609 -0.25,-0.44141 -0.56641,-0.44141 z m 0.33203,6.4062 c 0,0.11328 -0.15625,0.21094 -0.33203,0.21094 h -9.1758 c -0.19531,0 -0.33203,-0.10938 -0.33203,-0.21094 v -5.9648 c 0,-0.10938 0.15625,-0.20703 0.33203,-0.20703 H 92.16 c 0.17969,0 0.33203,0.09375 0.33203,0.20703 z"
       id="path35"
       style="fill:#ffffff" />
    <path
       d="m 85.961,53.207 c -0.08984,0 -0.0039,-0.01172 -2.1055,0.92188 -0.10938,0.05078 -0.18359,0.14453 -0.18359,0.26172 0.03516,0.32422 -0.10938,0.15234 2.207,1.2109 0.20312,0.07422 0.36328,-0.14062 0.24609,-0.30078 -0.0625,-0.08984 -0.0078,-0.02734 -1.9258,-0.89062 l 1.8242,-0.8125 c 0.22266,-0.08594 0.16016,-0.39062 -0.0625,-0.39062 z"
       id="path36"
       style="fill:#ffffff" />
    <path
       d="m 88.109,52.082 c -0.09375,0.07422 0.01172,-0.10156 -1.4141,4.0312 -0.09375,0.28125 0.30469,0.40234 0.39063,0.14062 1.4141,-4.1484 1.3594,-3.9453 1.3594,-4.0078 0,-0.17969 -0.20703,-0.26562 -0.33594,-0.16406 z"
       id="path37"
       style="fill:#ffffff" />
    <path
       d="m 89.242,53.223 c -0.02344,-0.01172 -0.05078,-0.01563 -0.08203,-0.01563 -0.22266,0 -0.28516,0.30469 -0.06641,0.39453 l 1.8242,0.8125 c -1.9062,0.85938 -1.8594,0.80078 -1.9258,0.89063 -0.12109,0.16797 0.05859,0.38281 0.24609,0.30078 l 2.0234,-0.90625 c 0.10938,-0.05078 0.18359,-0.14062 0.18359,-0.26172 -0.0039,-0.03516 0.01172,-0.10938 -0.04687,-0.19531 -0.03125,-0.04688 -0.0625,-0.0625 -2.1562,-1.0195 z"
       id="path38"
       style="fill:#ffffff" />
    <path
       d="m 88.371,68.719 c 0,1.625 -2.4414,1.625 -2.4414,0 0,-1.625 2.4414,-1.625 2.4414,0"
       id="path39"
       style="fill:#ffffff" />
    <path
       d="m 91.641,33.922 c 0.3125,0 0.56641,-0.19922 0.56641,-0.44531 v -9.3047 c 0,-0.24609 -0.24609,-0.44141 -0.56641,-0.44141 h -9.1758 c -0.3125,0 -0.56641,0.19922 -0.56641,0.44141 v 9.3047 c 0,0.24609 0.25391,0.44531 0.56641,0.44531 z m -9.5039,-0.44531 v -9.3047 c 0,-0.10938 0.15625,-0.20703 0.33203,-0.20703 h 9.1758 c 0.17969,0 0.33203,0.09375 0.33203,0.20703 v 9.3047 c 0,0.10156 -0.13672,0.21094 -0.33203,0.21094 h -9.1758 c -0.19531,0 -0.33203,-0.10938 -0.33203,-0.21094 z"
       id="path40"
       style="fill:#ffffff" />
    <path
       d="m 88.41,27.398 c 0,1.6875 -2.5352,1.6875 -2.5352,0 0,-1.6914 2.5352,-1.6914 2.5352,0"
       id="path41"
       style="fill:#ffffff" />
    <path
       d="m 84.57,31.523 h 4.9688 c 0.14453,0 0.26563,-0.13672 0.21875,-0.28125 -0.33203,-1.1758 -1.4102,-2.0469 -2.6992,-2.0469 -1.2891,0 -2.375,0.87109 -2.707,2.0469 -0.03906,0.14453 0.07422,0.28125 0.21875,0.28125 z"
       id="path42"
       style="fill:#ffffff" />
  </g>
</svg>
